<svg width="45" height="45" viewBox="0 0 45 45" fill="none" xmlns="http://www.w3.org/2000/svg">
<path d="M22.505 10.9601C16.1202 10.9601 10.9702 16.1101 10.9702 22.495C10.9702 28.8798 16.1202 34.0298 22.505 34.0298C28.8898 34.0298 34.0399 28.8798 34.0399 22.495C34.0399 16.1101 28.8898 10.9601 22.505 10.9601ZM22.505 29.9941C18.379 29.9941 15.0059 26.6311 15.0059 22.495C15.0059 18.3589 18.3689 14.9958 22.505 14.9958C26.6411 14.9958 30.0042 18.3589 30.0042 22.495C30.0042 26.6311 26.6311 29.9941 22.505 29.9941ZM37.2022 10.4883C37.2022 11.9841 35.9975 13.1788 34.5117 13.1788C33.0159 13.1788 31.8212 11.9741 31.8212 10.4883C31.8212 9.00251 33.0259 7.79782 34.5117 7.79782C35.9975 7.79782 37.2022 9.00251 37.2022 10.4883ZM44.8419 13.2189C44.6712 9.61489 43.848 6.42248 41.2078 3.79225C38.5775 1.16202 35.3851 0.338818 31.7811 0.158115C28.0666 -0.052705 16.9334 -0.052705 13.2189 0.158115C9.62493 0.328779 6.43252 1.15198 3.79225 3.78221C1.15198 6.41244 0.338818 9.60485 0.158115 13.2089C-0.052705 16.9233 -0.052705 28.0566 0.158115 31.7711C0.328779 35.3751 1.15198 38.5675 3.79225 41.1977C6.43252 43.8279 9.61489 44.6511 13.2189 44.8318C16.9334 45.0427 28.0666 45.0427 31.7811 44.8318C35.3851 44.6612 38.5775 43.838 41.2078 41.1977C43.838 38.5675 44.6612 35.3751 44.8419 31.7711C45.0527 28.0566 45.0527 16.9334 44.8419 13.2189ZM40.0432 35.7565C39.2602 37.7242 37.7443 39.2401 35.7666 40.0332C32.8051 41.2078 25.7777 40.9367 22.505 40.9367C19.2323 40.9367 12.1949 41.1977 9.24345 40.0332C7.27579 39.2501 5.7599 37.7342 4.96682 35.7565C3.79225 32.795 4.0633 25.7677 4.0633 22.495C4.0633 19.2223 3.80229 12.1849 4.96682 9.23341C5.74986 7.26576 7.26576 5.74986 9.24345 4.95678C12.205 3.78221 19.2323 4.05326 22.505 4.05326C25.7777 4.05326 32.8151 3.79225 35.7666 4.95678C37.7342 5.73982 39.2501 7.25572 40.0432 9.23341C41.2178 12.1949 40.9467 19.2223 40.9467 22.495C40.9467 25.7677 41.2178 32.8051 40.0432 35.7565Z" fill="#E8E8E8"/>
</svg>
