<svg width="45" height="47" viewBox="0 0 45 47" fill="none" xmlns="http://www.w3.org/2000/svg">
<path d="M45 18.9817C40.5765 18.9913 36.2615 17.7497 32.6646 15.4324V31.5937C32.6634 34.587 31.6468 37.5086 29.7509 39.9678C27.8549 42.4271 25.17 44.3067 22.055 45.3556C18.94 46.4044 15.5435 46.5723 12.3196 45.8369C9.0957 45.1014 6.19812 43.4977 4.01428 41.2402C1.83044 38.9826 0.464442 36.1789 0.0989405 33.2037C-0.266561 30.2286 0.385855 27.224 1.96895 24.5916C3.55205 21.9592 5.99037 19.8245 8.95787 18.473C11.9254 17.1214 15.2806 16.6175 18.5749 17.0285V25.1571C17.0674 24.7303 15.4487 24.7432 13.9498 25.1938C12.4509 25.6444 11.1485 26.5098 10.2287 27.6663C9.30888 28.8228 8.81862 30.2114 8.82793 31.6336C8.83723 33.0559 9.34564 34.4391 10.2805 35.5858C11.2154 36.7325 12.529 37.584 14.0337 38.0187C15.5384 38.4534 17.1572 38.4491 18.659 38.0064C20.1608 37.5637 21.4688 36.7052 22.3961 35.5536C23.3235 34.4019 23.8228 33.016 23.8228 31.5937V0H32.6646C32.6585 0.672007 32.721 1.3431 32.8515 2.00479V2.00479C33.1587 3.48191 33.7976 4.8871 34.7289 6.1344C35.6603 7.38169 36.8646 8.44488 38.2681 9.25892C40.265 10.4472 42.6061 11.0806 45 11.0801V18.9817Z" fill="#E8E8E8"/>
</svg>
