<svg width="45" height="37" viewBox="0 0 45 37" fill="none" xmlns="http://www.w3.org/2000/svg">
<path d="M40.3745 9.10849C40.403 9.50822 40.403 9.90804 40.403 10.3078C40.403 22.5 31.1232 36.5483 14.1625 36.5483C8.93719 36.5483 4.08315 35.0349 0 32.4081C0.742415 32.4937 1.45618 32.5223 2.22716 32.5223C6.53865 32.5223 10.5076 31.0661 13.6771 28.582C9.62248 28.4963 6.22461 25.8408 5.05391 22.186C5.62502 22.2716 6.19605 22.3287 6.79573 22.3287C7.62375 22.3287 8.45186 22.2144 9.22275 22.0147C4.99687 21.158 1.82734 17.4461 1.82734 12.9632V12.849C3.05509 13.5343 4.48288 13.9626 5.9961 14.0197C3.51195 12.3635 1.88447 9.53679 1.88447 6.33878C1.88447 4.62561 2.34124 3.05518 3.14078 1.68461C7.68079 7.28106 14.5051 10.9358 22.1573 11.3356C22.0146 10.6504 21.9289 9.9366 21.9289 9.22275C21.9289 4.14019 26.0406 0 31.1516 0C33.8071 0 36.2055 1.11358 37.8902 2.91244C39.9746 2.51271 41.9733 1.74174 43.7437 0.685286C43.0583 2.82684 41.6021 4.6257 39.6891 5.76776C41.5451 5.56798 43.344 5.05391 45 4.34014C43.7439 6.16748 42.1733 7.79496 40.3745 9.10849Z" fill="#E8E8E8"/>
</svg>
